<svg width="169" height="31" viewBox="0 0 169 31" fill="none" xmlns="http://www.w3.org/2000/svg">
<path d="M6.04 5.12C5.90667 4.98667 5.8 4.89333 5.72 4.84C5.64 4.78667 5.54667 4.76 5.44 4.76C5.33333 4.76 5.22667 4.8 5.12 4.88C5.01333 4.96 4.96 5.08 4.96 5.24V26.4H5.36V5.32C5.36 5.29333 5.36 5.26667 5.36 5.24C5.38667 5.21333 5.41333 5.2 5.44 5.2C5.46667 5.2 5.49333 5.21333 5.52 5.24C5.57333 5.26667 5.61333 5.29333 5.64 5.32L20.76 22.28V26.4H21.16V4.8H20.76V21.68L6.04 5.12ZM8.2 30H2.2C1.69333 30 1.32 29.8933 1.08 29.68C0.866667 29.44 0.76 29.0667 0.76 28.56V2.64C0.76 2.13333 0.866667 1.77333 1.08 1.56C1.32 1.32 1.69333 1.2 2.2 1.2H6.36C6.86667 1.2 7.29333 1.28 7.64 1.44C8.01333 1.6 8.37333 1.88 8.72 2.28L16.48 11.16V2.64C16.48 2.13333 16.5867 1.77333 16.8 1.56C17.04 1.32 17.4133 1.2 17.92 1.2H23.92C24.4267 1.2 24.7867 1.32 25 1.56C25.24 1.77333 25.36 2.13333 25.36 2.64V28.56C25.36 29.0667 25.24 29.44 25 29.68C24.7867 29.8933 24.4267 30 23.92 30H17.92C17.4133 30 17.04 29.8933 16.8 29.68C16.5867 29.44 16.48 29.0667 16.48 28.56V23.64L9.64 15.36V28.56C9.64 29.0667 9.52 29.44 9.28 29.68C9.06667 29.8933 8.70667 30 8.2 30ZM55.2772 22.44C55.2772 23.6667 55.0905 24.7867 54.7172 25.8C54.3705 26.7867 53.7305 27.64 52.7972 28.36C51.8905 29.0533 50.6239 29.6 48.9972 30C47.3972 30.4 45.3572 30.6 42.8772 30.6C40.3972 30.6 38.3439 30.4 36.7172 30C35.0905 29.6 33.8105 29.0533 32.8772 28.36C31.9705 27.64 31.3305 26.7867 30.9572 25.8C30.6105 24.7867 30.4372 23.6667 30.4372 22.44V8.8C30.4372 7.57333 30.6105 6.46667 30.9572 5.48C31.3305 4.46667 31.9705 3.6 32.8772 2.88C33.8105 2.16 35.0905 1.6 36.7172 1.2C38.3439 0.799999 40.3972 0.599999 42.8772 0.599999C45.3572 0.599999 47.3972 0.799999 48.9972 1.2C50.6239 1.6 51.8905 2.16 52.7972 2.88C53.7305 3.6 54.3705 4.46667 54.7172 5.48C55.0905 6.46667 55.2772 7.57333 55.2772 8.8V22.44ZM50.9172 21.52V9.72C50.9172 8.12 50.3439 6.82667 49.1972 5.84C48.0505 4.82667 45.9172 4.32 42.7972 4.32C39.6772 4.32 37.5572 4.82667 36.4372 5.84C35.3172 6.82667 34.7572 8.12 34.7572 9.72V21.52C34.7572 23.12 35.3172 24.4267 36.4372 25.44C37.5572 26.4267 39.6772 26.92 42.7972 26.92C45.9172 26.92 48.0505 26.4267 49.1972 25.44C50.3439 24.4267 50.9172 23.12 50.9172 21.52ZM35.1572 21.52V9.72C35.1572 8.22667 35.6905 7.02667 36.7572 6.12C37.8239 5.18667 39.8372 4.72 42.7972 4.72C45.7572 4.72 47.7839 5.18667 48.8772 6.12C49.9705 7.02667 50.5172 8.22667 50.5172 9.72V21.52C50.5172 23.0133 49.9705 24.2267 48.8772 25.16C47.7839 26.0667 45.7572 26.52 42.7972 26.52C39.8372 26.52 37.8239 26.0667 36.7572 25.16C35.6905 24.2267 35.1572 23.0133 35.1572 21.52ZM39.5172 21C39.5172 21.5333 39.7172 21.9867 40.1172 22.36C40.5172 22.7067 41.4372 22.88 42.8772 22.88C44.3172 22.88 45.2372 22.7067 45.6372 22.36C46.0372 21.9867 46.2372 21.5333 46.2372 21V10.24C46.2372 9.73333 46.0372 9.30667 45.6372 8.96C45.2372 8.58667 44.3172 8.4 42.8772 8.4C41.4372 8.4 40.5172 8.58667 40.1172 8.96C39.7172 9.30667 39.5172 9.73333 39.5172 10.24V21ZM73.8094 5.2C75.2227 5.2 76.2627 5.58667 76.9294 6.36C77.6227 7.13333 77.9694 8.13333 77.9694 9.36V12.16C77.9694 13.6267 77.6894 14.76 77.1294 15.56C76.5694 16.36 75.4627 16.76 73.8094 16.76H65.0894V5.2H73.8094ZM69.4094 8.4V13.52H72.4094C73.1027 13.52 73.5694 13.3467 73.8094 13C74.0494 12.6267 74.1694 12.1733 74.1694 11.64V10.28C74.1694 9.74667 74.0494 9.30667 73.8094 8.96C73.5694 8.58667 73.1027 8.4 72.4094 8.4H69.4094ZM65.0894 26.4V17.12H76.4094C77.9294 17.12 79.0494 17.4533 79.7694 18.12C80.4894 18.76 80.8494 19.7333 80.8494 21.04V26.4H81.2494V21.04C81.2494 19.6533 80.8494 18.6 80.0494 17.88C79.2494 17.1333 78.036 16.76 76.4094 16.76H75.9694C76.9294 16.4667 77.5694 15.9333 77.8894 15.16C78.2094 14.36 78.3694 13.3467 78.3694 12.12V9.36C78.3694 8.05333 77.996 6.97333 77.2494 6.12C76.5027 5.24 75.356 4.8 73.8094 4.8H64.6894V26.4H65.0894ZM67.9694 30H61.8094C61.3027 30 60.9294 29.8933 60.6894 29.68C60.476 29.44 60.3694 29.0667 60.3694 28.56V2.64C60.3694 2.13333 60.476 1.77333 60.6894 1.56C60.9294 1.32 61.3027 1.2 61.8094 1.2H75.1294C78.116 1.2 80.1694 1.82667 81.2894 3.08C82.436 4.30667 83.0094 5.90667 83.0094 7.88V9.72C83.0094 10.84 82.836 11.8 82.4894 12.6C82.1694 13.3733 81.596 13.9333 80.7694 14.28C82.2094 14.44 83.3694 15.0267 84.2494 16.04C85.156 17.0533 85.6094 18.4 85.6094 20.08V28.56C85.6094 29.0667 85.4894 29.44 85.2494 29.68C85.036 29.8933 84.676 30 84.1694 30H77.9694C77.4627 30 77.0894 29.8933 76.8494 29.68C76.636 29.44 76.5294 29.0667 76.5294 28.56V22.44C76.5294 21.8533 76.4094 21.4267 76.1694 21.16C75.956 20.8667 75.5694 20.72 75.0094 20.72H69.4094V28.56C69.4094 29.0667 69.2894 29.44 69.0494 29.68C68.836 29.8933 68.476 30 67.9694 30ZM106.896 30H91.5359C91.0293 30 90.6559 29.8933 90.4159 29.68C90.2026 29.44 90.0959 29.0667 90.0959 28.56V2.64C90.0959 2.13333 90.2026 1.77333 90.4159 1.56C90.6559 1.32 91.0293 1.2 91.5359 1.2H104.296C106.909 1.2 108.843 1.70667 110.096 2.72C111.349 3.70667 111.976 5.24 111.976 7.32V9.24C111.976 10.36 111.776 11.28 111.376 12C111.003 12.6933 110.416 13.2133 109.616 13.56C111.323 13.72 112.589 14.3067 113.416 15.32C114.243 16.3333 114.656 17.8133 114.656 19.76V23.44C114.656 25.68 114.016 27.3333 112.736 28.4C111.483 29.4667 109.536 30 106.896 30ZM94.5359 26.4H105.296C106.416 26.4 107.323 26.3067 108.016 26.12C108.709 25.9067 109.229 25.6267 109.576 25.28C109.949 24.9333 110.203 24.52 110.336 24.04C110.469 23.5333 110.536 22.9867 110.536 22.4V19.84C110.536 19.1733 110.469 18.56 110.336 18C110.229 17.44 109.989 16.96 109.616 16.56C109.243 16.1333 108.709 15.8133 108.016 15.6C107.323 15.36 106.429 15.24 105.336 15.24C106.483 14.9467 107.189 14.4667 107.456 13.8C107.749 13.1333 107.896 12.4 107.896 11.6V9.04C107.896 8.45333 107.829 7.90667 107.696 7.4C107.563 6.89333 107.309 6.45333 106.936 6.08C106.563 5.68 106.029 5.37333 105.336 5.16C104.643 4.92 103.749 4.8 102.656 4.8H94.5359V26.4ZM102.656 5.2C104.656 5.2 105.963 5.57333 106.576 6.32C107.189 7.06667 107.496 7.97333 107.496 9.04V11.6C107.496 12.08 107.443 12.5467 107.336 13C107.256 13.4267 107.043 13.8133 106.696 14.16C106.376 14.48 105.896 14.7467 105.256 14.96C104.616 15.1467 103.749 15.24 102.656 15.24H94.9359V5.2H102.656ZM99.0959 8V12.32H102.496C103.003 12.32 103.376 12.1867 103.616 11.92C103.883 11.6533 104.016 11.2533 104.016 10.72V9.6C104.016 9.06667 103.883 8.66667 103.616 8.4C103.376 8.13333 103.003 8 102.496 8H99.0959ZM105.336 15.64C107.336 15.64 108.629 16.04 109.216 16.84C109.829 17.64 110.136 18.64 110.136 19.84V22.4C110.136 23.4933 109.829 24.3733 109.216 25.04C108.603 25.68 107.296 26 105.296 26H94.9359V15.64H105.336ZM99.0959 18.48V23.2H104.296C104.803 23.2 105.176 23.0667 105.416 22.8C105.683 22.5333 105.816 22.1333 105.816 21.6V20.04C105.816 19.5067 105.683 19.12 105.416 18.88C105.176 18.6133 104.803 18.48 104.296 18.48H99.0959ZM119.88 30C119.374 30 119 29.8933 118.76 29.68C118.547 29.44 118.44 29.0667 118.44 28.56V23.8C118.44 23.2933 118.547 22.9333 118.76 22.72C119 22.48 119.374 22.36 119.88 22.36H123.84V8.92H119.88C119.374 8.92 119 8.81333 118.76 8.6C118.547 8.36 118.44 7.98667 118.44 7.48V2.64C118.44 2.13333 118.547 1.77333 118.76 1.56C119 1.32 119.374 1.2 119.88 1.2H136.92C137.427 1.2 137.787 1.32 138 1.56C138.24 1.77333 138.36 2.13333 138.36 2.64V7.48C138.36 7.98667 138.24 8.36 138 8.6C137.787 8.81333 137.427 8.92 136.92 8.92H133.04V22.36H136.92C137.427 22.36 137.787 22.48 138 22.72C138.24 22.9333 138.36 23.2933 138.36 23.8V28.56C138.36 29.0667 138.24 29.44 138 29.68C137.787 29.8933 137.427 30 136.92 30H119.88ZM134.76 26.4V26H128.64V5.2H134.76V4.8H122.04V5.2H128.24V26H122.04V26.4H134.76ZM158.219 30H144.739C144.232 30 143.859 29.8933 143.619 29.68C143.406 29.44 143.299 29.0667 143.299 28.56V2.64C143.299 2.13333 143.406 1.77333 143.619 1.56C143.859 1.32 144.232 1.2 144.739 1.2H158.219C161.552 1.2 164.019 1.86667 165.619 3.2C167.246 4.53333 168.059 6.58667 168.059 9.36V21.84C168.059 24.6133 167.246 26.6667 165.619 28C164.019 29.3333 161.552 30 158.219 30ZM147.659 26.4H157.339C158.699 26.4 159.806 26.2667 160.659 26C161.512 25.7067 162.166 25.32 162.619 24.84C163.072 24.36 163.366 23.7867 163.499 23.12C163.659 22.4533 163.739 21.7333 163.739 20.96V10.36C163.739 9.58667 163.659 8.86667 163.499 8.2C163.339 7.50667 163.032 6.92 162.579 6.44C162.126 5.93333 161.472 5.53333 160.619 5.24C159.792 4.94666 158.699 4.8 157.339 4.8H147.659V26.4ZM157.339 5.2C158.592 5.2 159.606 5.33333 160.379 5.6C161.179 5.86667 161.792 6.22667 162.219 6.68C162.646 7.13333 162.939 7.68 163.099 8.32C163.259 8.96 163.339 9.64 163.339 10.36V20.96C163.339 21.68 163.259 22.36 163.099 23C162.966 23.6133 162.686 24.1467 162.259 24.6C161.832 25.0267 161.219 25.3733 160.419 25.64C159.646 25.88 158.619 26 157.339 26H148.059V5.2H157.339ZM152.379 8.84V22.44H157.139C157.779 22.44 158.246 22.28 158.539 21.96C158.859 21.64 159.019 21.1467 159.019 20.48V10.76C159.019 10.0933 158.859 9.61333 158.539 9.32C158.246 9 157.779 8.84 157.139 8.84H152.379Z" fill="white"/>
</svg>
