<svg width="120" height="35" viewBox="0 0 120 35" fill="none" xmlns="http://www.w3.org/2000/svg">
<path d="M14.64 11.84C16.4267 11.84 17.8267 12.4 18.84 13.52C19.88 14.64 20.4 16.2133 20.4 18.24V34H12.48V19.68C12.48 18.88 12.3733 18.3333 12.16 18.04C11.9733 17.7467 11.68 17.6 11.28 17.6C10.4 17.6 9.50667 18.3067 8.6 19.72V34H0.68V12.64H7.6L8.16 14.84C9.14667 13.8 10.1467 13.04 11.16 12.56C12.2 12.08 13.36 11.84 14.64 11.84ZM33.5706 11.84C36.984 11.84 39.664 12.84 41.6106 14.84C43.584 16.84 44.5706 19.68 44.5706 23.36C44.5706 25.6533 44.1173 27.6667 43.2106 29.4C42.3306 31.1333 41.064 32.4667 39.4106 33.4C37.7573 34.3333 35.8106 34.8 33.5706 34.8C30.1573 34.8 27.464 33.8 25.4906 31.8C23.544 29.8 22.5706 26.96 22.5706 23.28C22.5706 20.9867 23.0106 18.9733 23.8906 17.24C24.7973 15.5067 26.0773 14.1733 27.7306 13.24C29.384 12.3067 31.3306 11.84 33.5706 11.84ZM33.5706 17.52C32.5573 17.52 31.824 17.9733 31.3706 18.88C30.9173 19.7867 30.6906 21.2533 30.6906 23.28C30.6906 25.3867 30.9173 26.8933 31.3706 27.8C31.824 28.68 32.5573 29.12 33.5706 29.12C34.584 29.12 35.3173 28.6667 35.7706 27.76C36.224 26.8533 36.4506 25.3867 36.4506 23.36C36.4506 21.2533 36.224 19.76 35.7706 18.88C35.3173 17.9733 34.584 17.52 33.5706 17.52ZM59.89 11.96C60.5833 11.96 61.3033 12.08 62.05 12.32L60.81 19.96C60.09 19.7467 59.4367 19.64 58.85 19.64C57.6767 19.64 56.7967 20.0267 56.21 20.8C55.65 21.5733 55.1967 22.7333 54.85 24.28V34H46.93V12.64H53.85L54.49 16.64C54.9433 15.2267 55.6633 14.0933 56.65 13.24C57.6367 12.3867 58.7167 11.96 59.89 11.96ZM76.8563 11.84C79.4429 11.84 81.4029 12.8533 82.7363 14.88C84.0696 16.88 84.7363 19.7067 84.7363 23.36C84.7363 25.5467 84.3896 27.5067 83.6962 29.24C83.0296 30.9733 82.0429 32.3333 80.7363 33.32C79.4563 34.3067 77.9363 34.8 76.1763 34.8C75.0296 34.8 73.9763 34.56 73.0163 34.08C72.0829 33.6267 71.2963 32.9867 70.6563 32.16L70.3763 34H63.3363V4.24L71.2563 3.44V14.52C71.8429 13.72 72.6429 13.08 73.6563 12.6C74.6696 12.0933 75.7363 11.84 76.8563 11.84ZM73.7763 29.16C74.6829 29.16 75.3763 28.72 75.8563 27.84C76.3629 26.96 76.6163 25.4667 76.6163 23.36C76.6163 21.0667 76.3896 19.52 75.9363 18.72C75.5096 17.92 74.8829 17.52 74.0563 17.52C72.9629 17.52 72.0296 18.1867 71.2563 19.52V27.6C71.8696 28.64 72.7096 29.16 73.7763 29.16ZM95.2016 12.64V34H87.2816V12.64H95.2016ZM91.2416 0.839998C92.5216 0.839998 93.5749 1.25333 94.4016 2.08C95.2549 2.88 95.6816 3.88 95.6816 5.08C95.6816 6.28 95.2549 7.29333 94.4016 8.12C93.5749 8.92 92.5216 9.32 91.2416 9.32C89.9616 9.32 88.8949 8.92 88.0416 8.12C87.2149 7.29333 86.8016 6.28 86.8016 5.08C86.8016 3.88 87.2149 2.88 88.0416 2.08C88.8949 1.25333 89.9616 0.839998 91.2416 0.839998ZM119.251 4.24V34H112.211L111.931 31.8C110.411 33.8 108.397 34.8 105.891 34.8C103.197 34.8 101.171 33.7733 99.8106 31.72C98.4506 29.6667 97.7706 26.8267 97.7706 23.2C97.7706 21.0133 98.144 19.0667 98.8906 17.36C99.6373 15.6267 100.677 14.28 102.011 13.32C103.371 12.3333 104.931 11.84 106.691 11.84C108.531 11.84 110.077 12.4 111.331 13.52V3.44L119.251 4.24ZM108.571 29.12C109.691 29.12 110.611 28.4933 111.331 27.24V18.68C110.957 18.28 110.584 17.9867 110.211 17.8C109.837 17.5867 109.424 17.48 108.971 17.48C108.037 17.48 107.291 17.9467 106.731 18.88C106.171 19.7867 105.891 21.2533 105.891 23.28C105.891 25.6267 106.117 27.1867 106.571 27.96C107.051 28.7333 107.717 29.12 108.571 29.12Z" fill="white"/>
</svg>
