<svg width="160" height="160" viewBox="0 0 160 160" fill="none" xmlns="http://www.w3.org/2000/svg">
<path d="M80 0C69.4943 0 59.0914 2.06926 49.3853 6.08964C39.6793 10.11 30.8601 16.0028 23.4315 23.4315C8.42855 38.4344 0 58.7827 0 80C0 101.217 8.42855 121.566 23.4315 136.569C30.8601 143.997 39.6793 149.89 49.3853 153.91C59.0914 157.931 69.4943 160 80 160C101.217 160 121.566 151.571 136.569 136.569C151.571 121.566 160 101.217 160 80C160 69.4943 157.931 59.0914 153.91 49.3853C149.89 39.6793 143.997 30.8601 136.569 23.4315C129.14 16.0028 120.321 10.11 110.615 6.08964C100.909 2.06926 90.5057 0 80 0M40.56 130.24C44 123.04 64.96 116 80 116C95.04 116 116 123.04 119.44 130.24C108.235 139.168 94.327 144.021 80 144C65.12 144 51.44 138.88 40.56 130.24ZM130.88 118.64C119.44 104.72 91.68 100 80 100C68.32 100 40.56 104.72 29.12 118.64C20.6095 107.557 15.9973 93.9736 16 80C16 44.72 44.72 16 80 16C115.28 16 144 44.72 144 80C144 94.56 139.04 108 130.88 118.64M80 32C64.48 32 52 44.48 52 60C52 75.52 64.48 88 80 88C95.52 88 108 75.52 108 60C108 44.48 95.52 32 80 32ZM80 72C76.8174 72 73.7652 70.7357 71.5147 68.4853C69.2643 66.2348 68 63.1826 68 60C68 56.8174 69.2643 53.7652 71.5147 51.5147C73.7652 49.2643 76.8174 48 80 48C83.1826 48 86.2348 49.2643 88.4853 51.5147C90.7357 53.7652 92 56.8174 92 60C92 63.1826 90.7357 66.2348 88.4853 68.4853C86.2348 70.7357 83.1826 72 80 72Z" fill="#1F2937"/>
</svg>
